<mxfile host="app.diagrams.net" agent="Mozilla/5.0 (Windows NT 10.0; Win64; x64) AppleWebKit/537.36 (KHTML, like Gecko) Chrome/132.0.0.0 YaBrowser/25.2.0.0 Safari/537.36" version="26.0.16">
  <diagram name="Страница — 1" id="8J66_-uDEm4GCvcUEeyM">
    <mxGraphModel dx="1280" dy="1651" grid="1" gridSize="10" guides="1" tooltips="1" connect="1" arrows="1" fold="1" page="1" pageScale="1" pageWidth="827" pageHeight="1169" math="0" shadow="0">
      <root>
        <mxCell id="0" />
        <mxCell id="1" parent="0" />
        <mxCell id="rXha1yn2Jos-oDwd2vt6-12" value="" style="edgeStyle=orthogonalEdgeStyle;rounded=0;orthogonalLoop=1;jettySize=auto;html=1;" edge="1" parent="1" source="rXha1yn2Jos-oDwd2vt6-1" target="rXha1yn2Jos-oDwd2vt6-6">
          <mxGeometry relative="1" as="geometry" />
        </mxCell>
        <mxCell id="rXha1yn2Jos-oDwd2vt6-1" value="start" style="ellipse;whiteSpace=wrap;html=1;" vertex="1" parent="1">
          <mxGeometry x="40" y="10" width="120" height="80" as="geometry" />
        </mxCell>
        <mxCell id="rXha1yn2Jos-oDwd2vt6-2" value="end" style="ellipse;whiteSpace=wrap;html=1;" vertex="1" parent="1">
          <mxGeometry x="50" y="420" width="120" height="80" as="geometry" />
        </mxCell>
        <mxCell id="rXha1yn2Jos-oDwd2vt6-14" style="edgeStyle=orthogonalEdgeStyle;rounded=0;orthogonalLoop=1;jettySize=auto;html=1;entryX=0.5;entryY=0;entryDx=0;entryDy=0;" edge="1" parent="1" source="rXha1yn2Jos-oDwd2vt6-3" target="rXha1yn2Jos-oDwd2vt6-9">
          <mxGeometry relative="1" as="geometry" />
        </mxCell>
        <mxCell id="rXha1yn2Jos-oDwd2vt6-19" value="true" style="edgeLabel;html=1;align=center;verticalAlign=middle;resizable=0;points=[];" vertex="1" connectable="0" parent="rXha1yn2Jos-oDwd2vt6-14">
          <mxGeometry x="-0.2923" y="-2" relative="1" as="geometry">
            <mxPoint as="offset" />
          </mxGeometry>
        </mxCell>
        <mxCell id="rXha1yn2Jos-oDwd2vt6-17" style="edgeStyle=orthogonalEdgeStyle;rounded=0;orthogonalLoop=1;jettySize=auto;html=1;exitX=1;exitY=0.75;exitDx=0;exitDy=0;entryX=0.647;entryY=-0.063;entryDx=0;entryDy=0;entryPerimeter=0;" edge="1" parent="1" target="rXha1yn2Jos-oDwd2vt6-33">
          <mxGeometry relative="1" as="geometry">
            <mxPoint x="160.00384615384618" y="231.53846153846143" as="sourcePoint" />
            <mxPoint x="243.85" y="259.9999999999998" as="targetPoint" />
            <Array as="points">
              <mxPoint x="160" y="230" />
              <mxPoint x="244" y="230" />
              <mxPoint x="244" y="266" />
            </Array>
          </mxGeometry>
        </mxCell>
        <mxCell id="rXha1yn2Jos-oDwd2vt6-20" value="false" style="edgeLabel;html=1;align=center;verticalAlign=middle;resizable=0;points=[];" vertex="1" connectable="0" parent="rXha1yn2Jos-oDwd2vt6-17">
          <mxGeometry x="-0.3975" y="-2" relative="1" as="geometry">
            <mxPoint as="offset" />
          </mxGeometry>
        </mxCell>
        <mxCell id="rXha1yn2Jos-oDwd2vt6-3" value="num &amp;gt;= 1&lt;div&gt;&amp;amp;&amp;amp;&lt;/div&gt;&lt;div&gt;num &amp;lt;=99&lt;/div&gt;" style="shape=parallelogram;perimeter=parallelogramPerimeter;whiteSpace=wrap;html=1;fixedSize=1;" vertex="1" parent="1">
          <mxGeometry x="40" y="200" width="120" height="60" as="geometry" />
        </mxCell>
        <mxCell id="rXha1yn2Jos-oDwd2vt6-13" value="" style="edgeStyle=orthogonalEdgeStyle;rounded=0;orthogonalLoop=1;jettySize=auto;html=1;" edge="1" parent="1" source="rXha1yn2Jos-oDwd2vt6-6" target="rXha1yn2Jos-oDwd2vt6-3">
          <mxGeometry relative="1" as="geometry" />
        </mxCell>
        <mxCell id="rXha1yn2Jos-oDwd2vt6-6" value="input num" style="rounded=0;whiteSpace=wrap;html=1;" vertex="1" parent="1">
          <mxGeometry x="40" y="110" width="120" height="60" as="geometry" />
        </mxCell>
        <mxCell id="rXha1yn2Jos-oDwd2vt6-9" value="&lt;span style=&quot;font-weight: normal;&quot;&gt;reqemi herfe ceviririk&lt;/span&gt;" style="rounded=0;whiteSpace=wrap;html=1;fontStyle=1" vertex="1" parent="1">
          <mxGeometry x="-100" y="270" width="120" height="60" as="geometry" />
        </mxCell>
        <mxCell id="rXha1yn2Jos-oDwd2vt6-18" style="edgeStyle=orthogonalEdgeStyle;rounded=0;orthogonalLoop=1;jettySize=auto;html=1;exitX=0.5;exitY=1;exitDx=0;exitDy=0;entryX=0.5;entryY=0;entryDx=0;entryDy=0;" edge="1" parent="1" source="rXha1yn2Jos-oDwd2vt6-10" target="rXha1yn2Jos-oDwd2vt6-2">
          <mxGeometry relative="1" as="geometry" />
        </mxCell>
        <mxCell id="rXha1yn2Jos-oDwd2vt6-10" value="sehv mesaji" style="rounded=0;whiteSpace=wrap;html=1;" vertex="1" parent="1">
          <mxGeometry x="170" y="270" width="120" height="60" as="geometry" />
        </mxCell>
        <mxCell id="rXha1yn2Jos-oDwd2vt6-21" value="" style="edgeStyle=orthogonalEdgeStyle;rounded=0;orthogonalLoop=1;jettySize=auto;html=1;" edge="1" parent="1" target="rXha1yn2Jos-oDwd2vt6-29">
          <mxGeometry relative="1" as="geometry">
            <mxPoint x="100" y="90" as="sourcePoint" />
          </mxGeometry>
        </mxCell>
        <mxCell id="rXha1yn2Jos-oDwd2vt6-22" value="end" style="ellipse;whiteSpace=wrap;html=1;" vertex="1" parent="1">
          <mxGeometry x="50" y="420" width="120" height="80" as="geometry" />
        </mxCell>
        <mxCell id="rXha1yn2Jos-oDwd2vt6-23" style="edgeStyle=orthogonalEdgeStyle;rounded=0;orthogonalLoop=1;jettySize=auto;html=1;entryX=0.5;entryY=0;entryDx=0;entryDy=0;" edge="1" parent="1" source="rXha1yn2Jos-oDwd2vt6-27" target="rXha1yn2Jos-oDwd2vt6-31">
          <mxGeometry relative="1" as="geometry" />
        </mxCell>
        <mxCell id="rXha1yn2Jos-oDwd2vt6-24" value="true" style="edgeLabel;html=1;align=center;verticalAlign=middle;resizable=0;points=[];" vertex="1" connectable="0" parent="rXha1yn2Jos-oDwd2vt6-23">
          <mxGeometry x="-0.2923" y="-2" relative="1" as="geometry">
            <mxPoint as="offset" />
          </mxGeometry>
        </mxCell>
        <mxCell id="rXha1yn2Jos-oDwd2vt6-27" value="if kredit &amp;lt; 0.6*maas" style="shape=parallelogram;perimeter=parallelogramPerimeter;whiteSpace=wrap;html=1;fixedSize=1;" vertex="1" parent="1">
          <mxGeometry x="40" y="200" width="130" height="60" as="geometry" />
        </mxCell>
        <mxCell id="rXha1yn2Jos-oDwd2vt6-28" value="" style="edgeStyle=orthogonalEdgeStyle;rounded=0;orthogonalLoop=1;jettySize=auto;html=1;" edge="1" parent="1" source="rXha1yn2Jos-oDwd2vt6-29" target="rXha1yn2Jos-oDwd2vt6-27">
          <mxGeometry relative="1" as="geometry" />
        </mxCell>
        <mxCell id="rXha1yn2Jos-oDwd2vt6-29" value="input maas&lt;div&gt;input kredit&lt;/div&gt;" style="rounded=0;whiteSpace=wrap;html=1;" vertex="1" parent="1">
          <mxGeometry x="40" y="110" width="120" height="60" as="geometry" />
        </mxCell>
        <mxCell id="rXha1yn2Jos-oDwd2vt6-38" style="edgeStyle=orthogonalEdgeStyle;rounded=0;orthogonalLoop=1;jettySize=auto;html=1;" edge="1" parent="1" source="rXha1yn2Jos-oDwd2vt6-31" target="rXha1yn2Jos-oDwd2vt6-22">
          <mxGeometry relative="1" as="geometry" />
        </mxCell>
        <mxCell id="rXha1yn2Jos-oDwd2vt6-31" value="&lt;span style=&quot;font-weight: 400;&quot;&gt;Kredit goture bilmezsiniz!&lt;/span&gt;" style="rounded=0;whiteSpace=wrap;html=1;fontStyle=1" vertex="1" parent="1">
          <mxGeometry x="-100" y="270" width="120" height="60" as="geometry" />
        </mxCell>
        <mxCell id="rXha1yn2Jos-oDwd2vt6-32" style="edgeStyle=orthogonalEdgeStyle;rounded=0;orthogonalLoop=1;jettySize=auto;html=1;exitX=0.5;exitY=1;exitDx=0;exitDy=0;entryX=0.5;entryY=0;entryDx=0;entryDy=0;" edge="1" parent="1" source="rXha1yn2Jos-oDwd2vt6-33" target="rXha1yn2Jos-oDwd2vt6-22">
          <mxGeometry relative="1" as="geometry" />
        </mxCell>
        <mxCell id="rXha1yn2Jos-oDwd2vt6-33" value="Kredit goture bilersiniz!" style="rounded=0;whiteSpace=wrap;html=1;" vertex="1" parent="1">
          <mxGeometry x="170" y="270" width="120" height="60" as="geometry" />
        </mxCell>
        <mxCell id="rXha1yn2Jos-oDwd2vt6-36" value="task3" style="text;html=1;align=center;verticalAlign=middle;resizable=0;points=[];autosize=1;strokeColor=none;fillColor=none;" vertex="1" parent="1">
          <mxGeometry x="70" y="-50" width="50" height="30" as="geometry" />
        </mxCell>
      </root>
    </mxGraphModel>
  </diagram>
</mxfile>
